@startuml
package paper <<Aggregate>>  {
    class Paper <<Aggregate Root>> {
        id: String
        blankQuizzes: List
        updateBlankQuizzes()
        {static} create(): Paper
    }
    class BlankQuiz <<Value Object>>{
        id: String
        detail: String
        referenceAnswer: String
    }
    Paper "1" *-- "n" BlankQuiz
}
package examination <<Aggregate>> {
    class Examination <<Aggregate Root>> {
        id: String
        paper: Paper
        students: List
        teacher: Teacher
        setPaper()
        setTeacher()
        updateStudents()
        {static} create(): Examination
    }

    class Student <<Entity>> {
        id: String
    }

    class Teacher <<Entity>> {
        id: String
    }

    Examination "1" *-- "1" Paper
    Examination "1" *-- "1" Teacher
    Examination "1" *-- "n" Student
}
package answerSheet <<Aggregate>> {
    class AnswerSheet <<Aggregate Root>> {
        id: String
        studentId: String
        score: String
        answer: List
        submit()
        handIn()
        review()
        {static} create(): AnswerSheet
    }

    class Answer <<Value Object>> {
        id: String
        blankQuizId: String
    }

    AnswerSheet "1" *-- "1" Student
    AnswerSheet "1" *-- "n" Answer
}
@enduml
